<mxfile host="app.diagrams.net" agent="Mozilla/5.0 (Windows NT 10.0; Win64; x64) AppleWebKit/537.36 (KHTML, like Gecko) Chrome/138.0.0.0 Safari/537.36 OPR/122.0.0.0" version="28.2.7">
  <diagram name="Pagina-1" id="j_TdrGKZkH7PSgoVBw5o">
    <mxGraphModel dx="982" dy="620" grid="1" gridSize="10" guides="1" tooltips="1" connect="1" arrows="1" fold="1" page="1" pageScale="1" pageWidth="827" pageHeight="1169" math="0" shadow="0">
      <root>
        <mxCell id="0" />
        <mxCell id="1" parent="0" />
        <mxCell id="N0ouR3s3m0bcPZH2oVLB-10" value="" style="whiteSpace=wrap;html=1;aspect=fixed;" vertex="1" parent="1">
          <mxGeometry x="120" y="100" width="533.75" height="533.75" as="geometry" />
        </mxCell>
        <mxCell id="N0ouR3s3m0bcPZH2oVLB-1" value="Utente" style="shape=umlActor;verticalLabelPosition=bottom;verticalAlign=top;html=1;outlineConnect=0;" vertex="1" parent="1">
          <mxGeometry x="40" y="220" width="40" height="70" as="geometry" />
        </mxCell>
        <mxCell id="N0ouR3s3m0bcPZH2oVLB-15" style="rounded=0;orthogonalLoop=1;jettySize=auto;html=1;exitX=1;exitY=0.5;exitDx=0;exitDy=0;entryX=0;entryY=0;entryDx=0;entryDy=0;endArrow=classic;endFill=1;dashed=1;" edge="1" parent="1" source="N0ouR3s3m0bcPZH2oVLB-3" target="N0ouR3s3m0bcPZH2oVLB-13">
          <mxGeometry relative="1" as="geometry" />
        </mxCell>
        <mxCell id="N0ouR3s3m0bcPZH2oVLB-3" value="Consultare saldo" style="ellipse;whiteSpace=wrap;html=1;" vertex="1" parent="1">
          <mxGeometry x="170" y="120" width="120" height="80" as="geometry" />
        </mxCell>
        <mxCell id="N0ouR3s3m0bcPZH2oVLB-7" value="" style="endArrow=none;html=1;rounded=0;entryX=0;entryY=0.5;entryDx=0;entryDy=0;exitX=0.5;exitY=0.5;exitDx=0;exitDy=0;exitPerimeter=0;" edge="1" parent="1" source="N0ouR3s3m0bcPZH2oVLB-1" target="N0ouR3s3m0bcPZH2oVLB-3">
          <mxGeometry width="50" height="50" relative="1" as="geometry">
            <mxPoint x="80" y="300" as="sourcePoint" />
            <mxPoint x="240" y="220" as="targetPoint" />
          </mxGeometry>
        </mxCell>
        <mxCell id="N0ouR3s3m0bcPZH2oVLB-18" style="rounded=0;orthogonalLoop=1;jettySize=auto;html=1;entryX=0;entryY=1;entryDx=0;entryDy=0;dashed=1;" edge="1" parent="1" source="N0ouR3s3m0bcPZH2oVLB-8" target="N0ouR3s3m0bcPZH2oVLB-13">
          <mxGeometry relative="1" as="geometry" />
        </mxCell>
        <mxCell id="N0ouR3s3m0bcPZH2oVLB-8" value="Effettuare pagamento" style="ellipse;whiteSpace=wrap;html=1;" vertex="1" parent="1">
          <mxGeometry x="170" y="215" width="120" height="80" as="geometry" />
        </mxCell>
        <mxCell id="N0ouR3s3m0bcPZH2oVLB-9" value="" style="endArrow=none;html=1;rounded=0;entryX=0;entryY=0.5;entryDx=0;entryDy=0;exitX=0.5;exitY=0.5;exitDx=0;exitDy=0;exitPerimeter=0;" edge="1" parent="1" source="N0ouR3s3m0bcPZH2oVLB-1" target="N0ouR3s3m0bcPZH2oVLB-8">
          <mxGeometry width="50" height="50" relative="1" as="geometry">
            <mxPoint x="90" y="370" as="sourcePoint" />
            <mxPoint x="160" y="373.9999999999999" as="targetPoint" />
          </mxGeometry>
        </mxCell>
        <mxCell id="N0ouR3s3m0bcPZH2oVLB-11" value="E-Bancking" style="text;html=1;whiteSpace=wrap;strokeColor=none;fillColor=none;align=center;verticalAlign=middle;rounded=0;" vertex="1" parent="1">
          <mxGeometry x="120" y="70" width="70" height="30" as="geometry" />
        </mxCell>
        <mxCell id="N0ouR3s3m0bcPZH2oVLB-13" value="Effettuare login" style="ellipse;whiteSpace=wrap;html=1;" vertex="1" parent="1">
          <mxGeometry x="370" y="170" width="120" height="80" as="geometry" />
        </mxCell>
        <mxCell id="N0ouR3s3m0bcPZH2oVLB-17" value="&amp;lt;&amp;lt;Include&amp;gt;&amp;gt;" style="text;html=1;whiteSpace=wrap;strokeColor=none;fillColor=none;align=center;verticalAlign=middle;rounded=0;" vertex="1" parent="1">
          <mxGeometry x="300" y="170" width="60" height="30" as="geometry" />
        </mxCell>
        <mxCell id="N0ouR3s3m0bcPZH2oVLB-19" value="&lt;span style=&quot;color: rgb(0, 0, 0); font-family: Helvetica; font-size: 12px; font-style: normal; font-variant-ligatures: normal; font-variant-caps: normal; font-weight: 400; letter-spacing: normal; orphans: 2; text-align: center; text-indent: 0px; text-transform: none; widows: 2; word-spacing: 0px; -webkit-text-stroke-width: 0px; white-space: normal; text-decoration-thickness: initial; text-decoration-style: initial; text-decoration-color: initial; float: none; display: inline !important;&quot;&gt;&amp;lt;&amp;lt;Include&amp;gt;&amp;gt;&lt;/span&gt;" style="text;whiteSpace=wrap;html=1;" vertex="1" parent="1">
          <mxGeometry x="300" y="240" width="76" height="30" as="geometry" />
        </mxCell>
        <mxCell id="N0ouR3s3m0bcPZH2oVLB-23" style="rounded=0;orthogonalLoop=1;jettySize=auto;html=1;entryX=1;entryY=0;entryDx=0;entryDy=0;dashed=1;" edge="1" parent="1" source="N0ouR3s3m0bcPZH2oVLB-22" target="N0ouR3s3m0bcPZH2oVLB-13">
          <mxGeometry relative="1" as="geometry" />
        </mxCell>
        <mxCell id="N0ouR3s3m0bcPZH2oVLB-22" value="Recupero password" style="ellipse;whiteSpace=wrap;html=1;" vertex="1" parent="1">
          <mxGeometry x="510" y="120" width="120" height="80" as="geometry" />
        </mxCell>
        <mxCell id="N0ouR3s3m0bcPZH2oVLB-24" value="&amp;lt;&amp;lt;Extend&amp;gt;&amp;gt;" style="text;html=1;whiteSpace=wrap;strokeColor=none;fillColor=none;align=center;verticalAlign=middle;rounded=0;" vertex="1" parent="1">
          <mxGeometry x="510" y="200" width="60" height="30" as="geometry" />
        </mxCell>
        <mxCell id="N0ouR3s3m0bcPZH2oVLB-30" style="rounded=0;orthogonalLoop=1;jettySize=auto;html=1;exitX=0.5;exitY=0.5;exitDx=0;exitDy=0;exitPerimeter=0;entryX=0;entryY=0.5;entryDx=0;entryDy=0;endArrow=none;endFill=0;" edge="1" parent="1" source="N0ouR3s3m0bcPZH2oVLB-26" target="N0ouR3s3m0bcPZH2oVLB-29">
          <mxGeometry relative="1" as="geometry" />
        </mxCell>
        <mxCell id="N0ouR3s3m0bcPZH2oVLB-26" value="Supporto clienti" style="shape=umlActor;verticalLabelPosition=bottom;verticalAlign=top;html=1;outlineConnect=0;" vertex="1" parent="1">
          <mxGeometry x="40" y="370" width="40" height="70" as="geometry" />
        </mxCell>
        <mxCell id="N0ouR3s3m0bcPZH2oVLB-27" value="compilare formulario" style="ellipse;whiteSpace=wrap;html=1;" vertex="1" parent="1">
          <mxGeometry x="170" y="360" width="120" height="80" as="geometry" />
        </mxCell>
        <mxCell id="N0ouR3s3m0bcPZH2oVLB-28" value="" style="endArrow=none;html=1;rounded=0;entryX=0;entryY=0;entryDx=0;entryDy=0;exitX=0.5;exitY=0.5;exitDx=0;exitDy=0;exitPerimeter=0;" edge="1" parent="1" source="N0ouR3s3m0bcPZH2oVLB-1" target="N0ouR3s3m0bcPZH2oVLB-27">
          <mxGeometry width="50" height="50" relative="1" as="geometry">
            <mxPoint x="80" y="380" as="sourcePoint" />
            <mxPoint x="177.57359312880703" y="531.7157287525381" as="targetPoint" />
          </mxGeometry>
        </mxCell>
        <mxCell id="N0ouR3s3m0bcPZH2oVLB-29" value="Notifica formulario" style="ellipse;whiteSpace=wrap;html=1;" vertex="1" parent="1">
          <mxGeometry x="170" y="460" width="120" height="80" as="geometry" />
        </mxCell>
        <mxCell id="N0ouR3s3m0bcPZH2oVLB-33" style="rounded=0;orthogonalLoop=1;jettySize=auto;html=1;exitX=0;exitY=0;exitDx=0;exitDy=0;entryX=1;entryY=1;entryDx=0;entryDy=0;dashed=1;" edge="1" parent="1" source="N0ouR3s3m0bcPZH2oVLB-31" target="N0ouR3s3m0bcPZH2oVLB-13">
          <mxGeometry relative="1" as="geometry" />
        </mxCell>
        <mxCell id="N0ouR3s3m0bcPZH2oVLB-31" value="Recupero Username" style="ellipse;whiteSpace=wrap;html=1;" vertex="1" parent="1">
          <mxGeometry x="510" y="280" width="120" height="80" as="geometry" />
        </mxCell>
        <mxCell id="N0ouR3s3m0bcPZH2oVLB-34" value="&amp;lt;&amp;lt;Extend&amp;gt;&amp;gt;" style="text;html=1;whiteSpace=wrap;strokeColor=none;fillColor=none;align=center;verticalAlign=middle;rounded=0;" vertex="1" parent="1">
          <mxGeometry x="510" y="255" width="60" height="30" as="geometry" />
        </mxCell>
      </root>
    </mxGraphModel>
  </diagram>
</mxfile>
